D:\school\WTK\thesis\model\3dpredictsim\Results\batch_windlass\Pog_s1_tmt_bCst_d05_k800_WL10_ig24_pas_GRF.mot
nRows=15
nColumns=19

name D:\school\WTK\thesis\model\3dpredictsim\Results\batch_windlass\Pog_s1_tmt_bCst_d05_k800_WL10_ig24_pas_GRF.mot
datacolumns 19
datarows 15
range 0.0000000000 0.1509309516
endheader
time 	ground_force_vx	ground_force_vy	ground_force_vz	ground_force_px	ground_force_py	ground_force_pz	1_ground_force_vx	1_ground_force_vy	1_ground_force_vz	1_ground_force_px	1_ground_force_py	1_ground_force_pz	ground_torque_x	ground_torque_y	ground_torque_z	1_ground_torque_x	1_ground_torque_y	1_ground_torque_z
        0.0000000000	      -92.6149777811	       76.5131210195	       32.2654978909	        0.1330371471	        0.0000000000	        0.0417044605	       86.0968779417	      412.4185465739	       -2.8606530390	       -0.3372534407	        0.0000000000	       -0.0318527471	        0.0000000000	        0.0000000000	        0.0000000000	        0.0000000000	        0.0000000000	        0.0000000000	
        0.0107807823	     -145.2763712811	      163.0974484264	       75.8042239774	        0.1436198493	        0.0000000000	        0.0405588133	       56.8870165086	      313.1523276503	      -12.2500158384	       -0.3306087230	        0.0000000000	       -0.0290323371	        0.0000000000	        0.0000000000	        0.0000000000	        0.0000000000	        0.0000000000	        0.0000000000	
        0.0215615645	      -69.6583473236	      379.0016519225	       29.3027715130	        0.1573069140	        0.0000000000	        0.0410630509	       25.0545577435	      205.1743807308	      -13.4412748704	       -0.3181194507	        0.0000000000	       -0.0225925278	        0.0000000000	        0.0000000000	        0.0000000000	        0.0000000000	        0.0000000000	        0.0000000000	
        0.0323423468	      -70.0554117845	      630.5775291916	       -4.8169694059	        0.1654982100	        0.0000000000	        0.0420865410	        4.9738994356	      148.9032805820	      -12.9673063391	       -0.3085654477	        0.0000000000	       -0.0167794527	        0.0000000000	        0.0000000000	        0.0000000000	        0.0000000000	        0.0000000000	        0.0000000000	
        0.0431231290	      -98.7805749105	      828.5483303594	      -14.5742751310	        0.1734661006	        0.0000000000	        0.0422273252	       -1.6334184046	      115.3561522407	      -11.6755090046	       -0.3084785942	        0.0000000000	       -0.0167792318	        0.0000000000	        0.0000000000	        0.0000000000	        0.0000000000	        0.0000000000	        0.0000000000	
        0.0539039113	     -124.3869440842	      949.2075728560	      -16.5083671635	        0.1834883790	        0.0000000000	        0.0414977992	       -9.8028338969	       73.2276905042	       -9.8569477532	       -0.3085525054	        0.0000000000	       -0.0167821671	        0.0000000000	        0.0000000000	        0.0000000000	        0.0000000000	        0.0000000000	        0.0000000000	
        0.0646846936	     -129.7243960125	      956.7672348661	      -13.0018224661	        0.1896275887	        0.0000000000	        0.0407849050	       -9.8528226367	       25.3137753213	       -4.5192699482	       -0.3087039009	        0.0000000000	       -0.0166578559	        0.0000000000	        0.0000000000	        0.0000000000	        0.0000000000	        0.0000000000	        0.0000000000	
        0.0754654758	     -115.0559503078	      905.6498489326	      -11.2763414590	        0.1929576560	        0.0000000000	        0.0402367143	        0.1747644047	       -0.1762671648	        0.0109217479	        0.0000000000	        0.0000000000	        0.0000000000	        0.0000000000	        0.0000000000	        0.0000000000	        0.0000000000	        0.0000000000	        0.0000000000	
        0.0862462581	      -97.3864390832	      841.0569670117	      -12.2626462458	        0.1959189515	        0.0000000000	        0.0398109914	        0.0003147266	       -0.0002599126	       -0.0000068095	        0.0000000000	        0.0000000000	        0.0000000000	        0.0000000000	        0.0000000000	        0.0000000000	        0.0000000000	        0.0000000000	        0.0000000000	
        0.0970270403	      -82.5617174811	      783.1486867313	      -13.0419024324	        0.1988944665	        0.0000000000	        0.0395193171	        0.0000951627	       -0.0000677358	       -0.0000044302	        0.0000000000	        0.0000000000	        0.0000000000	        0.0000000000	        0.0000000000	        0.0000000000	        0.0000000000	        0.0000000000	        0.0000000000	
        0.1078078226	      -69.8481832475	      735.7819168718	      -14.2655652474	        0.2019444759	        0.0000000000	        0.0393263689	        0.0005494879	       -0.0003497184	       -0.0000328898	        0.0000000000	        0.0000000000	        0.0000000000	        0.0000000000	        0.0000000000	        0.0000000000	        0.0000000000	        0.0000000000	        0.0000000000	
        0.1185886049	      -58.5839755858	      697.1038726975	      -15.4462970935	        0.2051676379	        0.0000000000	        0.0392162620	        0.0086130513	       -0.0050295038	       -0.0005973785	        0.0000000000	        0.0000000000	        0.0000000000	        0.0000000000	        0.0000000000	        0.0000000000	        0.0000000000	        0.0000000000	        0.0000000000	
        0.1293693871	      -48.5664890740	      665.9210031400	      -17.1586949898	        0.2091278307	        0.0000000000	        0.0391409546	       -0.0385283766	        0.0210196057	        0.0029732640	        0.0000000000	        0.0000000000	        0.0000000000	        0.0000000000	        0.0000000000	        0.0000000000	        0.0000000000	        0.0000000000	        0.0000000000	
        0.1401501694	      -40.9302694463	      641.4215159975	      -18.9678491282	        0.2140599270	        0.0000000000	        0.0390597260	       -0.0290247773	        0.0149743905	        0.0024583459	        0.0000000000	        0.0000000000	        0.0000000000	        0.0000000000	        0.0000000000	        0.0000000000	        0.0000000000	        0.0000000000	        0.0000000000	
        0.1509309516	      -35.4841061537	      622.9882005282	      -20.2296274420	        0.2195002105	        0.0000000000	        0.0389698591	       -0.0186068428	        0.0091530452	        0.0017114596	        0.0000000000	        0.0000000000	        0.0000000000	        0.0000000000	        0.0000000000	        0.0000000000	        0.0000000000	        0.0000000000	        0.0000000000	
